<mxfile host="app.diagrams.net" agent="Mozilla/5.0 (Windows NT 10.0; Win64; x64) AppleWebKit/537.36 (KHTML, like Gecko) Chrome/129.0.0.0 Safari/537.36 Edg/129.0.0.0" version="24.7.16">
  <diagram name="Page-1" id="Ig_PPxkEyt1LzH8gDWPB">
    <mxGraphModel dx="1226" dy="1794" grid="1" gridSize="10" guides="1" tooltips="1" connect="1" arrows="1" fold="1" page="1" pageScale="1" pageWidth="827" pageHeight="1169" math="0" shadow="0">
      <root>
        <mxCell id="0" />
        <mxCell id="1" parent="0" />
        <mxCell id="8TMTGA4cB8QBGKIssaTr-12" style="edgeStyle=orthogonalEdgeStyle;rounded=0;orthogonalLoop=1;jettySize=auto;html=1;exitX=1;exitY=0.25;exitDx=0;exitDy=0;entryX=0;entryY=0.5;entryDx=0;entryDy=0;" edge="1" parent="1" source="8TMTGA4cB8QBGKIssaTr-1" target="8TMTGA4cB8QBGKIssaTr-4">
          <mxGeometry relative="1" as="geometry" />
        </mxCell>
        <mxCell id="8TMTGA4cB8QBGKIssaTr-13" style="edgeStyle=orthogonalEdgeStyle;rounded=0;orthogonalLoop=1;jettySize=auto;html=1;exitX=1;exitY=0.75;exitDx=0;exitDy=0;entryX=0;entryY=0.5;entryDx=0;entryDy=0;" edge="1" parent="1" source="8TMTGA4cB8QBGKIssaTr-1" target="8TMTGA4cB8QBGKIssaTr-8">
          <mxGeometry relative="1" as="geometry" />
        </mxCell>
        <mxCell id="8TMTGA4cB8QBGKIssaTr-15" style="edgeStyle=orthogonalEdgeStyle;rounded=0;orthogonalLoop=1;jettySize=auto;html=1;exitX=0.5;exitY=1;exitDx=0;exitDy=0;" edge="1" parent="1" source="8TMTGA4cB8QBGKIssaTr-1" target="8TMTGA4cB8QBGKIssaTr-14">
          <mxGeometry relative="1" as="geometry" />
        </mxCell>
        <mxCell id="8TMTGA4cB8QBGKIssaTr-1" value="" style="whiteSpace=wrap;html=1;aspect=fixed;fontStyle=1" vertex="1" parent="1">
          <mxGeometry x="40" y="-729" width="230" height="230" as="geometry" />
        </mxCell>
        <mxCell id="8TMTGA4cB8QBGKIssaTr-3" style="edgeStyle=orthogonalEdgeStyle;rounded=0;orthogonalLoop=1;jettySize=auto;html=1;entryX=0;entryY=0.5;entryDx=0;entryDy=0;" edge="1" parent="1" source="8TMTGA4cB8QBGKIssaTr-2" target="8TMTGA4cB8QBGKIssaTr-6">
          <mxGeometry relative="1" as="geometry">
            <mxPoint x="320" y="-629" as="targetPoint" />
          </mxGeometry>
        </mxCell>
        <mxCell id="8TMTGA4cB8QBGKIssaTr-2" value="Networking" style="text;strokeColor=none;align=center;fillColor=none;html=1;verticalAlign=middle;whiteSpace=wrap;rounded=0;fontSize=20;fontStyle=1" vertex="1" parent="1">
          <mxGeometry x="80" y="-659" width="140" height="80" as="geometry" />
        </mxCell>
        <mxCell id="8TMTGA4cB8QBGKIssaTr-24" style="edgeStyle=orthogonalEdgeStyle;rounded=0;orthogonalLoop=1;jettySize=auto;html=1;exitX=1;exitY=0.5;exitDx=0;exitDy=0;entryX=1;entryY=0.5;entryDx=0;entryDy=0;" edge="1" parent="1" source="8TMTGA4cB8QBGKIssaTr-4" target="8TMTGA4cB8QBGKIssaTr-18">
          <mxGeometry relative="1" as="geometry" />
        </mxCell>
        <mxCell id="8TMTGA4cB8QBGKIssaTr-4" value="" style="rounded=0;whiteSpace=wrap;html=1;" vertex="1" parent="1">
          <mxGeometry x="344" y="-729" width="120" height="60" as="geometry" />
        </mxCell>
        <mxCell id="8TMTGA4cB8QBGKIssaTr-5" value="Lobby" style="text;strokeColor=none;align=center;fillColor=none;html=1;verticalAlign=middle;whiteSpace=wrap;rounded=0;" vertex="1" parent="1">
          <mxGeometry x="374" y="-714" width="60" height="30" as="geometry" />
        </mxCell>
        <mxCell id="8TMTGA4cB8QBGKIssaTr-6" value="" style="rounded=0;whiteSpace=wrap;html=1;" vertex="1" parent="1">
          <mxGeometry x="344" y="-649" width="120" height="60" as="geometry" />
        </mxCell>
        <mxCell id="8TMTGA4cB8QBGKIssaTr-7" value="Match Making" style="text;strokeColor=none;align=center;fillColor=none;html=1;verticalAlign=middle;whiteSpace=wrap;rounded=0;" vertex="1" parent="1">
          <mxGeometry x="374" y="-634" width="60" height="30" as="geometry" />
        </mxCell>
        <mxCell id="8TMTGA4cB8QBGKIssaTr-8" value="" style="rounded=0;whiteSpace=wrap;html=1;" vertex="1" parent="1">
          <mxGeometry x="344" y="-559" width="120" height="60" as="geometry" />
        </mxCell>
        <mxCell id="8TMTGA4cB8QBGKIssaTr-9" value="Voice Chat" style="text;strokeColor=none;align=center;fillColor=none;html=1;verticalAlign=middle;whiteSpace=wrap;rounded=0;" vertex="1" parent="1">
          <mxGeometry x="374" y="-544" width="60" height="30" as="geometry" />
        </mxCell>
        <mxCell id="8TMTGA4cB8QBGKIssaTr-22" style="edgeStyle=orthogonalEdgeStyle;rounded=0;orthogonalLoop=1;jettySize=auto;html=1;exitX=1;exitY=0.25;exitDx=0;exitDy=0;entryX=0;entryY=0.5;entryDx=0;entryDy=0;" edge="1" parent="1" source="8TMTGA4cB8QBGKIssaTr-14" target="8TMTGA4cB8QBGKIssaTr-18">
          <mxGeometry relative="1" as="geometry" />
        </mxCell>
        <mxCell id="8TMTGA4cB8QBGKIssaTr-14" value="" style="whiteSpace=wrap;html=1;aspect=fixed;" vertex="1" parent="1">
          <mxGeometry x="40" y="-409" width="230" height="230" as="geometry" />
        </mxCell>
        <mxCell id="8TMTGA4cB8QBGKIssaTr-23" style="edgeStyle=orthogonalEdgeStyle;rounded=0;orthogonalLoop=1;jettySize=auto;html=1;exitX=1;exitY=0.75;exitDx=0;exitDy=0;entryX=0;entryY=0.5;entryDx=0;entryDy=0;" edge="1" parent="1" source="8TMTGA4cB8QBGKIssaTr-16" target="8TMTGA4cB8QBGKIssaTr-20">
          <mxGeometry relative="1" as="geometry" />
        </mxCell>
        <mxCell id="8TMTGA4cB8QBGKIssaTr-16" value="Maze&amp;nbsp; Genration Alogrithm&amp;nbsp;" style="text;strokeColor=none;align=center;fillColor=none;html=1;verticalAlign=middle;whiteSpace=wrap;rounded=0;fontSize=20;fontStyle=1" vertex="1" parent="1">
          <mxGeometry x="60" y="-339" width="200" height="90" as="geometry" />
        </mxCell>
        <mxCell id="8TMTGA4cB8QBGKIssaTr-18" value="" style="rounded=0;whiteSpace=wrap;html=1;" vertex="1" parent="1">
          <mxGeometry x="320" y="-399" width="120" height="60" as="geometry" />
        </mxCell>
        <mxCell id="8TMTGA4cB8QBGKIssaTr-19" value="Spawn Point" style="text;strokeColor=none;align=center;fillColor=none;html=1;verticalAlign=middle;whiteSpace=wrap;rounded=0;" vertex="1" parent="1">
          <mxGeometry x="350" y="-384" width="60" height="30" as="geometry" />
        </mxCell>
        <mxCell id="8TMTGA4cB8QBGKIssaTr-20" value="" style="rounded=0;whiteSpace=wrap;html=1;" vertex="1" parent="1">
          <mxGeometry x="320" y="-309" width="120" height="60" as="geometry" />
        </mxCell>
        <mxCell id="8TMTGA4cB8QBGKIssaTr-21" value="Enemy" style="text;strokeColor=none;align=center;fillColor=none;html=1;verticalAlign=middle;whiteSpace=wrap;rounded=0;" vertex="1" parent="1">
          <mxGeometry x="350" y="-294" width="60" height="30" as="geometry" />
        </mxCell>
        <mxCell id="8TMTGA4cB8QBGKIssaTr-28" style="edgeStyle=orthogonalEdgeStyle;rounded=0;orthogonalLoop=1;jettySize=auto;html=1;exitX=1;exitY=0.25;exitDx=0;exitDy=0;entryX=0;entryY=0.5;entryDx=0;entryDy=0;" edge="1" parent="1" source="8TMTGA4cB8QBGKIssaTr-25" target="8TMTGA4cB8QBGKIssaTr-26">
          <mxGeometry relative="1" as="geometry" />
        </mxCell>
        <mxCell id="8TMTGA4cB8QBGKIssaTr-29" style="edgeStyle=orthogonalEdgeStyle;rounded=0;orthogonalLoop=1;jettySize=auto;html=1;exitX=1;exitY=0.75;exitDx=0;exitDy=0;entryX=0;entryY=0.5;entryDx=0;entryDy=0;" edge="1" parent="1" source="8TMTGA4cB8QBGKIssaTr-25" target="8TMTGA4cB8QBGKIssaTr-27">
          <mxGeometry relative="1" as="geometry" />
        </mxCell>
        <mxCell id="8TMTGA4cB8QBGKIssaTr-31" style="edgeStyle=orthogonalEdgeStyle;rounded=0;orthogonalLoop=1;jettySize=auto;html=1;exitX=0.5;exitY=1;exitDx=0;exitDy=0;entryX=0;entryY=0.75;entryDx=0;entryDy=0;" edge="1" parent="1" source="8TMTGA4cB8QBGKIssaTr-25" target="8TMTGA4cB8QBGKIssaTr-30">
          <mxGeometry relative="1" as="geometry" />
        </mxCell>
        <mxCell id="8TMTGA4cB8QBGKIssaTr-25" value="&lt;div&gt;&lt;br&gt;&lt;/div&gt;&lt;div&gt;&lt;br&gt;&lt;/div&gt;&lt;div&gt;&lt;br&gt;&lt;/div&gt;Player&amp;nbsp;&lt;span style=&quot;background-color: rgb(255, 255, 255); color: rgb(68, 68, 68); font-family: Poppins, sans-serif; font-size: 10px; text-align: start;&quot;&gt;Mechanics&lt;/span&gt;" style="rounded=0;whiteSpace=wrap;html=1;" vertex="1" parent="1">
          <mxGeometry x="90" y="-989" width="120" height="90" as="geometry" />
        </mxCell>
        <mxCell id="8TMTGA4cB8QBGKIssaTr-26" value="Walk&amp;nbsp; Run" style="rounded=0;whiteSpace=wrap;html=1;" vertex="1" parent="1">
          <mxGeometry x="290" y="-989" width="140" height="40" as="geometry" />
        </mxCell>
        <mxCell id="8TMTGA4cB8QBGKIssaTr-27" value="Jump" style="rounded=0;whiteSpace=wrap;html=1;" vertex="1" parent="1">
          <mxGeometry x="290" y="-929" width="140" height="40" as="geometry" />
        </mxCell>
        <mxCell id="8TMTGA4cB8QBGKIssaTr-30" value="Pick" style="rounded=0;whiteSpace=wrap;html=1;" vertex="1" parent="1">
          <mxGeometry x="290" y="-869" width="140" height="40" as="geometry" />
        </mxCell>
      </root>
    </mxGraphModel>
  </diagram>
</mxfile>
